<?xml version="1.0" encoding="UTF-8"?>
<svg version="1.1" xmlns="http://www.w3.org/2000/svg" width="768" height="768">
<path d="M0 0 C1.31605225 0.26586914 1.31605225 0.26586914 2.65869141 0.53710938 C28.24458422 5.71881104 53.4390661 14.8642112 77 26 C77.70753418 26.33032227 78.41506836 26.66064453 79.14404297 27.00097656 C97.63447269 35.69547962 115.50368486 45.9432031 132 58 C132.6604834 58.47791992 133.3209668 58.95583984 134.00146484 59.44824219 C143.7391434 66.5145222 153.0068555 74.01065235 162 82 C162.9590625 82.84691406 163.918125 83.69382812 164.90625 84.56640625 C177.80787028 96.1743201 190.31531614 108.30436804 201 122 C202.64186138 123.94086703 204.28789145 125.87821324 205.9375 127.8125 C214.89112134 138.55407359 222.61020722 150.14471747 230 162 C230.35384766 162.56203125 230.70769531 163.1240625 231.07226562 163.703125 C266.56486031 220.28364157 284.53771632 286.39088563 284.3125 353 C284.30976578 354.68160721 284.30976578 354.68160721 284.30697632 356.39718628 C284.26040335 373.4318188 283.78191733 390.15783127 281 407 C280.82307617 408.08345703 280.64615234 409.16691406 280.46386719 410.28320312 C273.88151281 449.36806382 261.54519072 486.94917833 243 522 C242.58637207 522.7847168 242.17274414 523.56943359 241.74658203 524.37792969 C235.75362051 535.68069452 229.37906329 546.54659059 222 557 C221.32324219 557.96035156 220.64648438 558.92070313 219.94921875 559.91015625 C217.99605608 562.63049304 216.00870917 565.3204433 214 568 C213.24203125 569.01449219 212.4840625 570.02898438 211.703125 571.07421875 C205.88986675 578.7795667 199.72100499 586.13661654 193.36865234 593.40185547 C191.96362558 595.04247359 190.61909928 596.72381347 189.26953125 598.41015625 C188.52058594 599.26480469 187.77164063 600.11945312 187 601 C186.34 601 185.68 601 185 601 C184.773125 601.55171875 184.54625 602.1034375 184.3125 602.671875 C182.61274074 605.68692417 180.45195184 607.81230369 178 610.25 C177.113125 611.14203125 176.22625 612.0340625 175.3125 612.953125 C173 615 173 615 171 615 C171 615.66 171 616.32 171 617 C169.7421875 618.3046875 169.7421875 618.3046875 167.875 619.875 C166.78058594 620.803125 166.78058594 620.803125 165.6640625 621.75 C164.78492188 622.4925 163.90578125 623.235 163 624 C161.92312488 624.93594406 160.84769237 625.87354964 159.7734375 626.8125 C130.19039757 652.59141099 96.157018 672.88247638 60 688 C59.34966797 688.27666504 58.69933594 688.55333008 58.02929688 688.83837891 C15.61970663 706.75277478 -30.71331854 714.47073367 -76.5625 714.3125 C-77.66183868 714.31067719 -78.76117737 714.30885437 -79.89382935 714.30697632 C-96.45144777 714.26081209 -112.63675959 713.73381654 -129 711 C-130.10166504 710.82307617 -131.20333008 710.64615234 -132.33837891 710.46386719 C-200.782654 699.28653387 -264.03605613 670.19541169 -316 624 C-317.47339844 622.69482422 -317.47339844 622.69482422 -318.9765625 621.36328125 C-324.91764872 616.00669542 -330.64320215 610.45435945 -336.3125 604.8125 C-336.97040527 604.15926758 -337.62831055 603.50603516 -338.30615234 602.83300781 C-352.48062094 588.6119716 -364.76722676 572.60628909 -376 556 C-376.47179687 555.30261719 -376.94359375 554.60523438 -377.4296875 553.88671875 C-388.09015297 538.01381574 -397.04367178 521.47044044 -405.02441406 504.10693359 C-405.88106967 502.25684905 -406.76277907 500.41840833 -407.6484375 498.58203125 C-439.32990074 432.45326274 -445.53871014 352.34737385 -431 281 C-430.80599609 280.0399707 -430.61199219 279.07994141 -430.41210938 278.09082031 C-423.32895986 244.03548714 -411.02859693 210.31408545 -394 180 C-393.31671631 178.77941895 -393.31671631 178.77941895 -392.61962891 177.53417969 C-387.12242301 167.7634805 -381.43324659 158.19035226 -375 149 C-374.61489258 148.44505859 -374.22978516 147.89011719 -373.83300781 147.31835938 C-368.22402991 139.24961559 -362.3528566 131.5050904 -356 124 C-355.56494141 123.48002441 -355.12988281 122.96004883 -354.68164062 122.42431641 C-342.97566826 108.43576198 -330.71476928 95.0467568 -317 83 C-316.26523437 82.33871094 -315.53046875 81.67742187 -314.7734375 80.99609375 C-310.26740139 77 -310.26740139 77 -308 77 C-308 76.34 -308 75.68 -308 75 C-304.50761054 71.95804239 -300.73924394 69.25502136 -297.01855469 66.49902344 C-295.00532891 65.00395736 -293.00679813 63.49059286 -291.0078125 61.9765625 C-267.4521879 44.35179469 -241.64035775 30.44872089 -214.57519531 19.08544922 C-212.42497264 18.17912669 -210.28520981 17.25378032 -208.1484375 16.31640625 C-143.63625708 -11.04565648 -67.98971828 -14.53146667 0 0 Z " fill="#97B41E" transform="translate(461,31)"/>
<path d="M0 0 C8.44309332 5.84420366 13.16862908 13.22464352 16 23 C16.25396729 26.35157776 16.25396729 26.35157776 16.25878906 30.04907227 C16.26404602 31.06780426 16.26404602 31.06780426 16.26940918 32.1071167 C16.27817737 34.34365211 16.27238494 36.5798678 16.265625 38.81640625 C16.26697539 40.39420125 16.26891902 41.97199584 16.27142334 43.54978943 C16.27436995 46.86257882 16.27010052 50.1752603 16.26074219 53.48803711 C16.24948634 57.67018561 16.25601463 61.85207589 16.26761532 66.03421497 C16.36875285 108.8336143 16.36875285 108.8336143 11.9375 127.6875 C11.76412109 128.48220703 11.59074219 129.27691406 11.41210938 130.09570312 C10.17723934 135.64552131 10.17723934 135.64552131 9 138 C8.57591641 142.05861685 8.57591641 142.05861685 10.13662624 145.66858864 C12.81111837 147.57955749 14.79420921 147.37065927 18.0639801 147.36508179 C19.96691582 147.37305031 19.96691582 147.37305031 21.90829468 147.38117981 C23.31720126 147.37203107 24.72610627 147.36263869 26.13500977 147.35302734 C27.61674637 147.35385805 29.09848275 147.35607392 30.58021545 147.35957336 C33.77398242 147.36452795 36.96756594 147.36041495 40.16131783 147.34955978 C45.2177246 147.33320774 50.27390092 147.34166185 55.33030701 147.35440063 C68.80397288 147.38453194 82.27759825 147.38310438 95.75128073 147.36414778 C104.5969897 147.35179171 113.44243778 147.35374499 122.28811687 147.38253558 C127.30750438 147.39772568 132.3261821 147.39035025 137.34552491 147.36582541 C140.48073049 147.35570478 143.61561576 147.36650176 146.75078392 147.38294029 C148.1962808 147.3863722 149.64182823 147.38137962 151.08725739 147.36697197 C160.62472484 147.27785388 168.53486483 148.09694678 175.86849308 154.67632103 C177.47179366 156.35110949 178.72932162 158.06221546 180 160 C180.61875 160.88171875 180.61875 160.88171875 181.25 161.78125 C185.61132839 169.41357468 185.19135881 179.52323501 184 188 C181.76478894 195.45596906 177.81467173 201.97495997 171 206 C165.43116954 208.8607957 160.77795852 209.51220504 154.5625 209.6875 C153.73556641 209.72166016 152.90863281 209.75582031 152.05664062 209.79101562 C150.03821056 209.87268621 148.01913116 209.93803724 146 210 C146.5463208 210.26264648 147.0926416 210.52529297 147.65551758 210.79589844 C148.73289185 211.32231934 148.73289185 211.32231934 149.83203125 211.859375 C150.54335205 212.20452148 151.25467285 212.54966797 151.98754883 212.90527344 C157.58955814 215.95263602 161.13189375 221.45131753 164 227 C166.76909197 236.42037884 166.62817587 249.02554085 162.4375 257.875 C158.45846203 264.48188038 153.70051601 269.00586741 146.33203125 271.4765625 C141.62021249 272.53415666 136.81260027 272.76739099 132 273 C133.19625 273.515625 134.3925 274.03125 135.625 274.5625 C141.92291299 277.71145649 145.73109961 282.37296157 148 289 C148.4647721 293.42811157 148.41616215 297.86237273 148.4375 302.3125 C148.47037109 303.51068359 148.50324219 304.70886719 148.53710938 305.94335938 C148.59054423 314.76010969 146.99483119 319.53062083 141.19140625 326.0234375 C140.65386719 326.46945312 140.11632812 326.91546875 139.5625 327.375 C139.02753906 327.83648437 138.49257813 328.29796875 137.94140625 328.7734375 C133.30681305 331.70153059 128.50498999 332.29561286 123.125 332.625 C121.97257812 332.69976562 120.82015625 332.77453125 119.6328125 332.8515625 C118.76398438 332.90054687 117.89515625 332.94953125 117 333 C117.65226562 333.268125 118.30453125 333.53625 118.9765625 333.8125 C125.40171651 336.69339501 129.63854009 339.71997524 133 346 C135.38784838 352.30652586 135.4398572 358.07414885 135.5 364.75 C135.561875 366.44382812 135.561875 366.44382812 135.625 368.171875 C135.69957804 376.22630297 134.13673196 381.71152107 129 388 C121.69450535 394.80225767 114.85594812 396.29775749 105.09057617 396.33813477 C104.10526917 396.34967087 103.11996216 396.36120697 102.10479736 396.37309265 C98.8341709 396.40744701 95.56373653 396.42595193 92.29296875 396.44140625 C91.15708124 396.44830915 90.02119373 396.45521206 88.85088539 396.46232414 C82.79031875 396.49824945 76.72984545 396.52170809 70.66918945 396.53540039 C65.75796705 396.5484184 60.84769144 396.58250185 55.93676758 396.63793945 C24.81716323 396.98216821 -5.15814261 395.51885806 -35.85604668 390.16608238 C-44.46090931 388.67544125 -53.00203691 387.84927961 -61.734375 387.796875 C-62.52662476 387.78990601 -63.31887451 387.78293701 -64.13513184 387.77575684 C-66.6734762 387.75849257 -69.21159939 387.7520383 -71.75 387.75 C-72.61927124 387.74899292 -73.48854248 387.74798584 -74.38415527 387.74694824 C-92.39324316 387.7610509 -109.36949509 389.70746792 -126.92871094 393.72949219 C-130.68587044 394.5849839 -134.1398331 395.22167295 -138 395 C-137.566875 396.37285156 -137.566875 396.37285156 -137.125 397.7734375 C-136.75375 398.96195313 -136.3825 400.15046875 -136 401.375 C-135.62875 402.55835938 -135.2575 403.74171875 -134.875 404.9609375 C-134 408 -134 408 -134 410 C-146.02262266 413.76160528 -158.06956081 417.34473631 -170.25 420.5625 C-177.7290402 422.53934606 -185.144573 424.60268746 -192.5 427 C-199.54969515 429.2923016 -206.64576555 431.29362806 -213.8125 433.1875 C-224.98179415 436.14415232 -236.09060582 439.2836432 -247.1875 442.5 C-248.00366791 442.73630127 -248.81983582 442.97260254 -249.66073608 443.21606445 C-260.60935195 446.38961574 -271.53848647 449.61778096 -282.40307617 453.0703125 C-283.23170166 453.32941406 -284.06032715 453.58851563 -284.9140625 453.85546875 C-285.6148291 454.07871826 -286.3155957 454.30196777 -287.03759766 454.53198242 C-289 455 -289 455 -293 455 C-296.03077896 447.134735 -298.39456447 439.21986096 -300.5 431.0625 C-302.43365005 423.5971981 -304.53769659 416.27166997 -307.02685547 408.97241211 C-308.66928624 403.95570496 -309.97914169 398.85583463 -311.3125 393.75 C-316.01014351 376.05122136 -321.15582007 358.49316493 -326.60351562 341.01098633 C-328.34104474 335.38112246 -329.83847569 329.72648167 -331.24072266 324.00439453 C-332.46707457 319.15182647 -333.88973681 314.36046067 -335.3125 309.5625 C-335.93281452 307.45458088 -336.55259638 305.34650494 -337.171875 303.23828125 C-337.63303711 301.66941162 -337.63303711 301.66941162 -338.10351562 300.06884766 C-339.69543753 294.61937643 -341.23886866 289.15616667 -342.78686523 283.6940918 C-344.05660713 279.23481302 -345.35852119 274.78771134 -346.70703125 270.3515625 C-346.98603271 269.43342773 -347.26503418 268.51529297 -347.55249023 267.56933594 C-348.08847449 265.81358579 -348.62816999 264.05896296 -349.17211914 262.30566406 C-349.53164673 261.12955566 -349.53164673 261.12955566 -349.8984375 259.9296875 C-350.11161621 259.24116699 -350.32479492 258.55264648 -350.54443359 257.84326172 C-351 256 -351 256 -351 253 C-343.03072749 250.24269896 -335.03575399 247.86612603 -326.875 245.75 C-317.84734842 243.36828086 -308.90762609 240.79668242 -300 238 C-290.24262098 234.93919306 -280.43686733 232.18592053 -270.55004883 229.57641602 C-262.41810164 227.41695343 -254.37237831 225.03776013 -246.33349609 222.55664062 C-236.59742645 219.55365952 -226.81208911 216.74329731 -217 214 C-216.0085498 213.7220459 -215.01709961 213.4440918 -213.99560547 213.15771484 C-210.95683911 212.30820336 -207.91631588 211.46533406 -204.875 210.625 C-203.93197021 210.36195068 -202.98894043 210.09890137 -202.01733398 209.82788086 C-200.70551147 209.46835327 -200.70551147 209.46835327 -199.3671875 209.1015625 C-198.59487793 208.88838379 -197.82256836 208.67520508 -197.02685547 208.45556641 C-195 208 -195 208 -192 208 C-191.01 210.97 -190.02 213.94 -189 217 C-164.94561727 207.77683591 -143.30278096 193.79159568 -124.47265625 176.2890625 C-122.39532394 174.36597129 -120.28375015 172.51725482 -118.125 170.6875 C-110.13524589 163.73559024 -102.55218033 156.07785686 -95.71875 147.98828125 C-94.44450933 146.51421647 -93.12431742 145.07960828 -91.78125 143.66796875 C-80.04869503 131.28566786 -71.01629528 117.52038329 -64 102 C-63.46246094 100.8759375 -62.92492187 99.751875 -62.37109375 98.59375 C-60.77476037 94.40962833 -60.1599939 90.54831561 -59.625 86.125 C-59.37950562 84.26276918 -59.13196333 82.40080764 -58.8828125 80.5390625 C-58.74649414 79.50942383 -58.61017578 78.47978516 -58.46972656 77.41894531 C-57.35831822 69.3294638 -56.08166812 61.26257967 -54.83422852 53.19311523 C-53.88355621 47.01628951 -52.95316398 40.84453135 -52.22265625 34.63671875 C-50.6498839 21.39673082 -48.32417954 10.37496879 -37.33203125 1.625 C-26.1975372 -6.13370942 -11.99719191 -6.65469239 0 0 Z " fill="#FED1B2" transform="translate(468,121)"/>
<path d="M0 0 C38.31980595 -0.06867851 76.63960261 -0.12153508 114.95945766 -0.15319599 C119.48428372 -0.15694807 124.00910967 -0.16083104 128.53393555 -0.16479492 C129.43474041 -0.16558185 130.33554528 -0.16636878 131.26364727 -0.16717956 C145.84606972 -0.18023065 160.42845666 -0.20388286 175.01085805 -0.23145839 C189.97565351 -0.25952085 204.94043039 -0.27617804 219.90525109 -0.28226548 C229.13806946 -0.28638018 238.37078746 -0.29937246 247.60357494 -0.3237494 C253.93631594 -0.33961696 260.26900512 -0.34439805 266.60176455 -0.34050413 C270.25450398 -0.33858417 273.90706811 -0.34151096 277.55977631 -0.35761642 C281.5241225 -0.37496788 285.48824148 -0.36895245 289.45262146 -0.36076355 C290.60147227 -0.36950207 291.75032308 -0.3782406 292.93398756 -0.38724393 C302.08466801 -0.33615682 309.27514419 1.0525281 316.39453125 7.01171875 C322.40772291 14.45871281 322.6483304 21.2202195 322.5625 30.5 C322.58634766 31.68464844 322.61019531 32.86929688 322.63476562 34.08984375 C322.62020698 42.7959153 320.92296494 47.6110241 315.19140625 54.0234375 C314.38509766 54.69246094 314.38509766 54.69246094 313.5625 55.375 C312.76005859 56.06722656 312.76005859 56.06722656 311.94140625 56.7734375 C307.30681305 59.70153059 302.50498999 60.29561286 297.125 60.625 C295.97257812 60.69976562 294.82015625 60.77453125 293.6328125 60.8515625 C292.76398438 60.90054688 291.89515625 60.94953125 291 61 C291.65226562 61.268125 292.30453125 61.53625 292.9765625 61.8125 C299.40171651 64.69339501 303.63854009 67.71997524 307 74 C309.38784838 80.30652586 309.4398572 86.07414885 309.5 92.75 C309.561875 94.44382812 309.561875 94.44382812 309.625 96.171875 C309.69957804 104.22630297 308.13673196 109.71152107 303 116 C295.69450535 122.80225767 288.85594812 124.29775749 279.09057617 124.33813477 C278.10526917 124.34967087 277.11996216 124.36120697 276.10479736 124.37309265 C272.8341709 124.40744701 269.56373653 124.42595193 266.29296875 124.44140625 C264.58913749 124.45176061 264.58913749 124.45176061 262.85088539 124.46232414 C256.79031875 124.49824945 250.72984545 124.52170809 244.66918945 124.53540039 C239.75796705 124.5484184 234.84769144 124.58250185 229.93676758 124.63793945 C198.81716323 124.98216821 168.84185739 123.51885806 138.14395332 118.16608238 C129.53907632 116.67543876 120.99797179 115.84934192 112.265625 115.796875 C111.47364716 115.78986069 110.68166931 115.78284637 109.86569214 115.77561951 C107.32706924 115.75824019 104.7886802 115.75176759 102.25 115.75 C101.37873474 115.74932526 100.50746948 115.74865051 99.60980225 115.74795532 C81.4689716 115.77024852 64.63409388 118.03133748 46.8671875 121.61328125 C45.72048584 121.84358032 44.57378418 122.07387939 43.39233398 122.31115723 C40.59469844 122.8731627 37.79725987 123.43612825 35 124 C26.26549133 94.18194538 17.63124895 64.3367146 9.1423378 34.44784927 C8.49860026 32.1825744 7.85384693 29.91759083 7.20883179 27.65267944 C6.19048516 24.07613718 5.1749079 20.4988203 4.16158104 16.92085266 C3.78577459 15.59528811 3.40911005 14.2699665 3.03154945 12.94490051 C2.51529493 11.13218516 2.00266356 9.3184391 1.49023438 7.50463867 C1.20096069 6.48472336 0.91168701 5.46480804 0.61364746 4.41398621 C0 2 0 2 0 0 Z " fill="#F3C5A3" transform="translate(294,393)"/>
<path d="M0 0 C1.73839989 4.01555793 2.81383361 8.02085627 3.83192444 12.27293396 C5.90968751 20.78900772 8.26885442 29.20902959 10.68920898 37.63305664 C11.14495463 39.22675902 11.60047339 40.8205263 12.05578613 42.41435242 C13.27852902 46.69186066 14.50463534 50.96839752 15.73158526 55.24470067 C16.76137662 58.83506386 17.78945805 62.42591576 18.8175512 66.01676553 C21.24516445 74.49567859 23.67550699 82.97380588 26.10766602 91.45141602 C28.60494271 100.15615908 31.09789375 108.86213244 33.58866829 117.56873804 C35.73929823 125.08583848 37.89247726 132.6022055 40.04768997 140.1179933 C41.32965245 144.58858604 42.61072849 149.05942743 43.88940239 153.53096199 C45.09226042 157.73689978 46.29834049 161.94190109 47.50676727 166.14624214 C47.94602146 167.67640032 48.38420804 169.20686551 48.82116127 170.73768234 C51.35433607 179.60944611 54.06844487 188.38004631 57.07565403 197.10364437 C58 200 58 200 58 202 C45.97737734 205.76160528 33.93043919 209.34473631 21.75 212.5625 C14.2709598 214.53934606 6.855427 216.60268746 -0.5 219 C-7.54969515 221.2923016 -14.64576555 223.29362806 -21.8125 225.1875 C-32.98179415 228.14415232 -44.09060582 231.2836432 -55.1875 234.5 C-56.00366791 234.73630127 -56.81983582 234.97260254 -57.66073608 235.21606445 C-68.60935195 238.38961574 -79.53848647 241.61778096 -90.40307617 245.0703125 C-91.23170166 245.32941406 -92.06032715 245.58851563 -92.9140625 245.85546875 C-93.6148291 246.07871826 -94.3155957 246.30196777 -95.03759766 246.53198242 C-97 247 -97 247 -101 247 C-104.03077896 239.134735 -106.39456447 231.21986096 -108.5 223.0625 C-110.43365005 215.5971981 -112.53769659 208.27166997 -115.02685547 200.97241211 C-116.66928624 195.95570496 -117.97914169 190.85583463 -119.3125 185.75 C-124.01014351 168.05122136 -129.15582007 150.49316493 -134.60351562 133.01098633 C-136.34104474 127.38112246 -137.83847569 121.72648167 -139.24072266 116.00439453 C-140.46707457 111.15182647 -141.88973681 106.36046067 -143.3125 101.5625 C-143.93281452 99.45458088 -144.55259638 97.34650494 -145.171875 95.23828125 C-145.47931641 94.19236816 -145.78675781 93.14645508 -146.10351562 92.06884766 C-147.69543753 86.61937643 -149.23886866 81.15616667 -150.78686523 75.6940918 C-152.05660713 71.23481302 -153.35852119 66.78771134 -154.70703125 62.3515625 C-154.98603271 61.43342773 -155.26503418 60.51529297 -155.55249023 59.56933594 C-156.08847449 57.81358579 -156.62816999 56.05896296 -157.17211914 54.30566406 C-157.4118042 53.5215918 -157.65148926 52.73751953 -157.8984375 51.9296875 C-158.11161621 51.24116699 -158.32479492 50.55264648 -158.54443359 49.84326172 C-159 48 -159 48 -159 45 C-151.03072749 42.24269896 -143.03575399 39.86612603 -134.875 37.75 C-125.84734842 35.36828086 -116.90762609 32.79668242 -108 30 C-98.24262098 26.93919306 -88.43686733 24.18592053 -78.55004883 21.57641602 C-70.41810164 19.41695343 -62.37237831 17.03776013 -54.33349609 14.55664062 C-44.59742645 11.55365952 -34.81208911 8.74329731 -25 6 C-24.0085498 5.7220459 -23.01709961 5.4440918 -21.99560547 5.15771484 C-18.95683911 4.30820336 -15.91631588 3.46533406 -12.875 2.625 C-11.46045532 2.23042603 -11.46045532 2.23042603 -10.01733398 1.82788086 C-8.70551147 1.46835327 -8.70551147 1.46835327 -7.3671875 1.1015625 C-6.20872314 0.78179443 -6.20872314 0.78179443 -5.02685547 0.45556641 C-3 0 -3 0 0 0 Z " fill="#EBECEE" transform="translate(276,329)"/>
<path d="M0 0 C0.28957077 1.01904922 0.57914154 2.03809845 0.87748718 3.08802795 C3.62430969 12.7528738 6.37473495 22.41668821 9.12857342 32.07953739 C10.54378942 37.04576758 11.95779097 42.01233648 13.36889648 46.97973633 C14.73404785 51.78518977 16.10254667 56.5896789 17.47324562 61.39355278 C17.99222764 63.21456279 18.51005926 65.03590112 19.02664757 66.85759163 C21.82761043 76.7318244 24.74735799 86.52125619 28.10798645 96.22093201 C29 99 29 99 29 101 C16.97737734 104.76160528 4.93043919 108.34473631 -7.25 111.5625 C-14.7290402 113.53934606 -22.144573 115.60268746 -29.5 118 C-36.54969515 120.2923016 -43.64576555 122.29362806 -50.8125 124.1875 C-61.98179415 127.14415232 -73.09060582 130.2836432 -84.1875 133.5 C-85.00366791 133.73630127 -85.81983582 133.97260254 -86.66073608 134.21606445 C-97.60935195 137.38961574 -108.53848647 140.61778096 -119.40307617 144.0703125 C-120.23170166 144.32941406 -121.06032715 144.58851563 -121.9140625 144.85546875 C-122.6148291 145.07871826 -123.3155957 145.30196777 -124.03759766 145.53198242 C-126 146 -126 146 -130 146 C-133.03077896 138.134735 -135.39456447 130.21986096 -137.5 122.0625 C-139.43365005 114.5971981 -141.53769659 107.27166997 -144.02685547 99.97241211 C-145.66927259 94.95574666 -146.979708 89.85595174 -148.3125 84.75 C-151.00243545 74.57963023 -153.85587281 64.46975832 -156.86645508 54.38964844 C-157.14642334 53.44637695 -157.4263916 52.50310547 -157.71484375 51.53125 C-157.96355225 50.70173828 -158.21226074 49.87222656 -158.46850586 49.01757812 C-159 47 -159 47 -159 45 C-147.7124083 41.49393453 -136.41926063 38.05414545 -125 35 C-116.45286134 32.71166896 -107.98877909 30.20966517 -99.53295898 27.60546875 C-92.37034598 25.40363968 -85.18331465 23.30747358 -77.97314453 21.26733398 C-72.40842694 19.69189414 -66.85585639 18.07981136 -61.30834961 16.44482422 C-50.64449363 13.30415308 -39.94377655 10.34753199 -29.19799805 7.5 C-21.71060653 5.50199376 -14.32845576 3.29566353 -6.9765625 0.84765625 C-4 0 -4 0 0 0 Z " fill="#D6D7DB" transform="translate(305,430)"/>
<path d="M0 0 C8.01039276 3.34860681 13.12006619 6.98644439 17 15 C18.27401649 20.38183729 18.29769888 25.68155225 18.375 31.1875 C18.41238281 32.17814453 18.44976563 33.16878906 18.48828125 34.18945312 C18.5852503 42.4048866 16.6330184 48.95520279 11.06787109 55.15112305 C3.95149768 62.14420715 -4.43621965 63.45273122 -14.0925293 63.40405273 C-15.54377449 63.41434761 -15.54377449 63.41434761 -17.02433777 63.42485046 C-20.20778334 63.4430686 -23.3907324 63.4392802 -26.57421875 63.43359375 C-28.82119401 63.43816522 -31.06816788 63.44347363 -33.31513977 63.44947815 C-38.03168394 63.45840516 -42.74805888 63.45599925 -47.46459961 63.44604492 C-52.24244847 63.43692981 -57.01980554 63.44359163 -61.79760742 63.46655273 C-111.35225024 63.70384625 -111.35225024 63.70384625 -135.25814819 59.48117065 C-139.02727451 58.81972244 -142.80734981 58.29547025 -146.59765625 57.76953125 C-149.8556801 57.29001989 -153.11274996 56.80493134 -156.36914062 56.31445312 C-186.86802554 51.8436967 -218.1515934 53.27849051 -247.98046875 61.265625 C-251 62 -251 62 -255 62 C-254.7834375 62.66386719 -254.566875 63.32773437 -254.34375 64.01171875 C-253.92609375 65.33623047 -253.92609375 65.33623047 -253.5 66.6875 C-253.08234375 67.99267578 -253.08234375 67.99267578 -252.65625 69.32421875 C-251.99925867 72.0030227 -251.95176741 74.25677139 -252 77 C-254.72565811 77.77875946 -257.45132089 78.55750251 -260.17700195 79.33618164 C-262.64305843 80.04084018 -265.10903904 80.74576423 -267.57495117 81.45092773 C-273.9191608 83.26489734 -280.26410466 85.07617043 -286.61175537 86.87806702 C-290.34574074 87.93812616 -294.07924461 88.99987311 -297.8125 90.0625 C-298.55995483 90.27522552 -299.30740967 90.48795105 -300.07751465 90.7071228 C-310.00919011 93.53697631 -319.90148604 96.4679931 -329.76586914 99.52539062 C-337.98478017 102.04855083 -346.28109278 104.24885582 -354.59204102 106.44604492 C-361.70079909 108.33969526 -368.70559871 110.43453556 -375.69750977 112.7175293 C-386.66848009 116.25123676 -397.85492447 119.07443399 -409 122 C-412.23582637 119.0447302 -413.05157901 116.35524723 -414.25 112.125 C-414.60578125 110.91070313 -414.9615625 109.69640625 -415.328125 108.4453125 C-415.98797674 105.06165417 -415.77738742 103.27693312 -415 100 C-414.20110352 99.7728833 -413.40220703 99.5457666 -412.57910156 99.31176758 C-405.79155245 97.3777691 -399.00981667 95.42522692 -392.234375 93.44921875 C-376.74297191 88.93525373 -361.25251068 84.47428379 -345.65136719 80.35229492 C-338.7796087 78.52170352 -332.01349149 76.46952026 -325.25268555 74.26831055 C-317.51091768 71.77844188 -309.66614884 69.70311043 -301.80664062 67.62084961 C-293.61200592 65.4478644 -285.45646381 63.16155118 -277.32080078 60.77734375 C-276.51368652 60.54273438 -275.70657227 60.308125 -274.875 60.06640625 C-274.17117188 59.85959229 -273.46734375 59.65277832 -272.7421875 59.43969727 C-271 59 -271 59 -269 59 C-269.433125 57.87851562 -269.433125 57.87851562 -269.875 56.734375 C-270.431875 55.25710938 -270.431875 55.25710938 -271 53.75 C-271.37125 52.77546875 -271.7425 51.8009375 -272.125 50.796875 C-273 48 -273 48 -273 44 C-265.02023743 42.2294048 -257.02095824 40.57335582 -249 39 C-248.11973145 38.8246875 -247.23946289 38.649375 -246.33251953 38.46875 C-215.47644023 32.57385724 -182.84252137 35.31759765 -152.21240234 41.07714844 C-128.58049325 45.23185445 -104.64941877 44.61014801 -80.73681641 44.52148438 C-74.44835695 44.49844558 -68.16057132 44.51202431 -61.87213516 44.53577423 C-56.985544 44.55023553 -52.09911279 44.5456289 -47.21251678 44.53526306 C-44.89218819 44.53260972 -42.57184472 44.53581606 -40.25153351 44.54518127 C-37.02308975 44.5553802 -33.79574493 44.53980932 -30.56738281 44.51757812 C-29.6260701 44.52567505 -28.68475739 44.53377197 -27.71492004 44.54211426 C-20.16183113 44.44613292 -14.63633765 42.23138901 -8.25 38.3125 C-0.92152185 30.78045301 -0.23622542 23.1211126 -0.1875 12.9375 C-0.16236328 11.69033203 -0.13722656 10.44316406 -0.11132812 9.15820312 C-0.05284053 6.10515082 -0.01627778 3.0535199 0 0 Z " fill="#7A9119" transform="translate(603,472)"/>
<path d="M0 0 C7.06637104 1.98741685 12.35868716 7.41135103 15.9375 13.625 C18.90103588 19.19041993 19.1514286 24.54787524 19.16113281 30.76171875 C19.16609772 31.52850952 19.17106262 32.29530029 19.17617798 33.08532715 C19.19076085 35.61939407 19.19760142 38.15339801 19.203125 40.6875 C19.20595238 41.5613736 19.20877975 42.43524719 19.21169281 43.33560181 C19.22668337 47.97634176 19.23590884 52.61705074 19.24023438 57.2578125 C19.24459243 61.0573908 19.25837922 64.85673863 19.28125 68.65625 C19.53841386 112.1762333 19.53841386 112.1762333 15 130 C12.06195004 130.08086376 9.12611925 130.1404283 6.1875 130.1875 C5.35412109 130.21263672 4.52074219 130.23777344 3.66210938 130.26367188 C2.45844727 130.27817383 2.45844727 130.27817383 1.23046875 130.29296875 C0.12288208 130.31653442 0.12288208 130.31653442 -1.00708008 130.34057617 C-3.57690582 129.9014108 -4.44461475 129.0589905 -6 127 C-6.40101924 122.80382769 -5.71566517 119.18493426 -4.6875 115.125 C-3.47964441 110.09894688 -2.35859641 105.0738054 -1.375 100 C-1.01535156 98.1746875 -1.01535156 98.1746875 -0.6484375 96.3125 C1.2321393 84.96224135 1.15005265 73.4416516 1.1328125 61.97265625 C1.13348805 60.36893194 1.13446015 58.76520773 1.13571167 57.16148376 C1.13717387 53.82761647 1.13508014 50.49377623 1.13037109 47.15991211 C1.12464201 42.89768126 1.12798215 38.63551296 1.13394356 34.37328434 C1.13756159 31.07296784 1.13640542 27.77266612 1.13381577 24.47234917 C1.13315162 22.90034414 1.13395689 21.32833774 1.13629532 19.7563343 C1.13884592 17.56286183 1.1349489 15.36949038 1.12939453 13.17602539 C1.12859894 11.93172256 1.12780334 10.68741974 1.12698364 9.40541077 C1.00676321 6.18137385 0.61006695 3.16435094 0 0 Z " fill="#7A9119" transform="translate(482,138)"/>
<path d="M0 0 C6.91505866 2.0745176 11.65408958 5.35607484 15.375 11.625 C18.27658177 17.65136213 18.27896997 23.08325317 18.375 29.6875 C18.43107422 31.12125977 18.43107422 31.12125977 18.48828125 32.58398438 C18.58848109 40.75027093 16.30208256 46.11131994 11.04296875 52.3046875 C2.70309909 59.36285088 -5.35857691 61.21889611 -16.12890625 60.75 C-20 60 -20 60 -22.15234375 57.9375 C-23.5625 55.3125 -23.5625 55.3125 -24.75 52.55078125 C-27.38767038 47.16828513 -33.55478585 44.87179236 -39 43 C-39 42.67 -39 42.34 -39 42 C-38.44650879 41.99589111 -37.89301758 41.99178223 -37.32275391 41.98754883 C-20.28015128 41.90412308 -20.28015128 41.90412308 -6.125 33.25 C-1.02760013 25.45397667 0.58656368 19.23830774 0.25 9.9375 C0.23195313 8.97650391 0.21390625 8.01550781 0.1953125 7.02539062 C0.14868796 4.68250773 0.08328169 2.3418171 0 0 Z " fill="#7B911A" transform="translate(651,288)"/>
<path d="M0 0 C1.27835517 0.61369354 2.55384847 1.23335058 3.828125 1.85546875 C4.5387207 2.19989014 5.24931641 2.54431152 5.98144531 2.89916992 C12.13215121 6.25349175 14.98490328 11.96980656 18 18 C18.29822817 22.03533568 18.27818112 26.07994859 18.3125 30.125 C18.34150391 31.24132812 18.37050781 32.35765625 18.40039062 33.5078125 C18.46248271 41.60844143 17.13961428 46.65764791 12.4296875 53.171875 C6.07455067 59.62281792 -0.77067973 62.12842781 -9.75 62.875 C-13.0859375 62.78515625 -13.0859375 62.78515625 -16 62 C-18.15958687 59.66852765 -19.32589438 57.41613484 -20.68359375 54.55078125 C-22.95273332 50.15390249 -26.43579592 47.9465519 -31 46.26171875 C-32.64805631 45.77328271 -34.32282937 45.37650769 -36 45 C-36 44.67 -36 44.34 -36 44 C-34.96101562 43.97421875 -33.92203125 43.9484375 -32.8515625 43.921875 C-18.43155758 43.44570158 -18.43155758 43.44570158 -6.625 35.8125 C-0.7762415 27.73942398 0.57434333 20.82373416 0.25 10.9375 C0.23195313 9.88111328 0.21390625 8.82472656 0.1953125 7.73632812 C0.14862013 5.1565745 0.08315588 2.57879183 0 0 Z " fill="#7B9119" transform="translate(632,349)"/>
<path d="M0 0 C6.06862769 1.094517 10.59954353 3.81768056 14.3671875 8.8125 C18.33289026 15.52814263 18.24101457 21.65348173 18.3125 29.25 C18.34150391 30.26191406 18.37050781 31.27382813 18.40039062 32.31640625 C18.46881745 40.43288011 16.90914373 45.7272133 11.5 51.8125 C4.46396328 57.96903213 -1.23298822 59.80342415 -10.69140625 59.71484375 C-14 59 -14 59 -15.96484375 56.94140625 C-16.91337152 55.17309825 -17.80641197 53.37401304 -18.64453125 51.55078125 C-21.4796999 46.21543506 -27.48288395 43.89650864 -33 42 C-33 41.67 -33 41.34 -33 41 C-32.02160156 40.97421875 -31.04320312 40.9484375 -30.03515625 40.921875 C-17.63961576 40.45616362 -17.63961576 40.45616362 -7.1953125 34.3203125 C-2.87850981 29.50780041 -0.78667323 25.69799204 -0.5859375 19.140625 C-0.54726563 18.02558594 -0.50859375 16.91054688 -0.46875 15.76171875 C-0.4378125 14.60285156 -0.406875 13.44398438 -0.375 12.25 C-0.33632813 11.07566406 -0.29765625 9.90132813 -0.2578125 8.69140625 C-0.1636018 5.79442732 -0.07798398 2.89745374 0 0 Z " fill="#7B911A" transform="translate(616,412)"/>
<path d="M0 0 C2.96528179 -0.0562279 5.68850026 0.04316196 8.625 0.3125 C9.42679687 0.37373047 10.22859375 0.43496094 11.0546875 0.49804688 C13.03758124 0.65148508 15.01898519 0.82395693 17 1 C16.6770174 17.34291945 15.87652176 31.49633517 4 44 C-5.14634146 51 -5.14634146 51 -8 51 C-8.26026422 43.14773203 -7.53561061 35.842345 -6.125 28.125 C-5.75441535 26.01967068 -5.38461725 23.91420275 -5.015625 21.80859375 C-4.83837891 20.80940918 -4.66113281 19.81022461 -4.47851562 18.78076172 C-3.70739435 14.29960289 -3.08834085 9.80061807 -2.4921875 5.29296875 C-2 3 -2 3 0 0 Z " fill="#FDEBDE" transform="translate(421,135)"/>
<path d="M0 0 C4.15676951 1.43888176 7.3577149 3.53587689 10.08203125 7.0625 C12.03744224 11.18966532 11.71642767 15.58312483 11 20 C8.9976035 24.004793 6.82001123 26.6587028 3 29 C-0.73052567 30.24350856 -4.12552043 30.52198871 -8 30 C-12.80232849 27.59883576 -15.70264475 24.85978996 -18 20 C-18.93721728 15.10397695 -19.16072483 10.89333817 -16.49609375 6.546875 C-11.31654151 0.53470163 -7.84956463 -0.71600758 0 0 Z " fill="#454344" transform="translate(282,482)"/>
<path d="M0 0 C0.66 0.66 1.32 1.32 2 2 C-4.6 1.34 -11.2 0.68 -18 0 C-18 -0.33 -18 -0.66 -18 -1 C-11.65027286 -2.53932779 -6.07508581 -2.54305918 0 0 Z " fill="#DDB586" transform="translate(433,509)"/>
</svg>
