<?xml version="1.0" encoding="UTF-8"?>
<svg version="1.1" xmlns="http://www.w3.org/2000/svg" width="368" height="308">
<path d="M0 0 C0.98699613 -0.00226556 1.97399226 -0.00453111 2.99089736 -0.00686532 C6.2955945 -0.0131915 9.60025048 -0.01237684 12.904953 -0.0115509 C15.27544203 -0.01454325 17.64593056 -0.01794596 20.01641846 -0.02172852 C25.78582977 -0.02964721 31.55522861 -0.03278284 37.32464508 -0.03334089 C42.01597872 -0.03381661 46.70730901 -0.03587411 51.39864159 -0.03904152 C64.70928531 -0.04784501 78.01992098 -0.05246138 91.33056764 -0.05171105 C92.40621163 -0.05165111 92.40621163 -0.05165111 93.50358582 -0.05158997 C94.58054827 -0.05152864 94.58054827 -0.05152864 95.67926755 -0.05146609 C107.31256755 -0.05105972 118.94583516 -0.06062776 130.5791258 -0.07472833 C142.5337627 -0.08910368 154.48838382 -0.09599788 166.44302958 -0.09513456 C173.1507641 -0.09480298 179.85845957 -0.09772794 186.5661869 -0.10831261 C192.87562132 -0.11799692 199.18498406 -0.11807041 205.49442101 -0.11079597 C207.80789164 -0.10975056 210.12136674 -0.11211047 212.43482971 -0.11815643 C215.59750634 -0.12588527 218.75993603 -0.12122549 221.92260742 -0.11352539 C222.83390862 -0.11866895 223.74520981 -0.12381252 224.6841262 -0.12911195 C234.50125899 -0.07644403 242.61539001 1.51925082 250.15177917 8.13371277 C256.13229535 15.17646174 257.46850009 23.41563795 257.37882996 32.38566589 C257.37912201 33.16711975 257.37941406 33.94857361 257.37971497 34.75370789 C257.37833422 37.30757698 257.36283298 39.86114535 257.34709167 42.41496277 C257.34335707 44.19714702 257.34051221 45.97933334 257.33851624 47.76152039 C257.33091502 52.43040226 257.31129702 57.09915781 257.28910828 61.76799011 C257.26857385 66.54092195 257.25949833 71.3138744 257.24943542 76.08683777 C257.22804755 85.43585131 257.19395442 94.7847715 257.15177917 104.13371277 C258.55399719 104.34737488 258.55399719 104.34737488 259.98454285 104.56535339 C269.38301699 106.25190606 277.37668444 112.78563503 283.15177917 120.13371277 C290.25462682 131.56533452 291.45144483 142.10890257 291.42643738 155.29484558 C291.43079204 156.7067644 291.43597768 158.11868086 291.44192505 159.53059387 C291.45523817 163.34021946 291.45590288 167.14974539 291.45336175 170.95938969 C291.45228784 174.14556885 291.45718556 177.3317282 291.46196717 180.51790309 C291.47303346 188.03243305 291.47351453 195.54691299 291.467453 203.06144714 C291.46140061 210.80792983 291.47376278 218.55423145 291.49502307 226.30068326 C291.51263482 232.96331985 291.51864153 239.62589876 291.51538533 246.28855777 C291.51357331 250.26306771 291.5162015 254.23744815 291.53009987 258.21193695 C291.54266846 261.94505619 291.54074355 265.67789208 291.52768898 269.41100693 C291.52419466 271.43173205 291.53550528 273.45246581 291.54725647 275.47315979 C291.54024216 276.67866486 291.53322784 277.88416992 291.52600098 279.12620544 C291.52625259 280.69461622 291.52625259 280.69461622 291.52650928 282.29471207 C291.09236075 285.58387394 290.10134886 287.47153789 288.15177917 290.13371277 C285.90703355 291.25608558 284.63987518 291.28248998 282.14860535 291.32658386 C280.91173225 291.35067825 280.91173225 291.35067825 279.64987183 291.3752594 C275.87699719 291.41973805 272.10429808 291.4607754 268.33122253 291.48381042 C266.34184571 291.50036827 264.35252833 291.52765605 262.3634491 291.56584167 C259.49440163 291.62063541 256.6267483 291.64248793 253.75724792 291.65715027 C252.87062973 291.67981964 251.98401154 291.70248901 251.07052612 291.72584534 C249.81946831 291.72157028 249.81946831 291.72157028 248.5431366 291.71720886 C247.81414658 291.72529572 247.08515656 291.73338257 246.33407593 291.74171448 C244.15177917 291.13371277 244.15177917 291.13371277 239.15177917 286.13371277 C239.15177917 276.56371277 239.15177917 266.99371277 239.15177917 257.13371277 C155.00177917 257.13371277 70.85177917 257.13371277 -15.84822083 257.13371277 C-15.84822083 266.04371277 -15.84822083 274.95371277 -15.84822083 284.13371277 C-18.84822083 289.13371277 -18.84822083 289.13371277 -20.84822083 291.13371277 C-22.69425964 291.40113831 -22.69425964 291.40113831 -24.95906067 291.42424011 C-25.80689117 291.43699982 -26.65472168 291.44975952 -27.52824402 291.46290588 C-28.44594574 291.46513153 -29.36364746 291.46735718 -30.30915833 291.46965027 C-31.25127167 291.47630707 -32.19338501 291.48296387 -33.16404724 291.48982239 C-35.15966333 291.49995955 -37.15531339 291.50463908 -39.1509552 291.50431824 C-42.20425902 291.50868565 -45.25611102 291.54497791 -48.30915833 291.58293152 C-50.24665337 291.58880059 -52.1841553 291.59276938 -54.12165833 291.59465027 C-55.03531158 291.6090213 -55.94896484 291.62339233 -56.89030457 291.63819885 C-57.74443939 291.63204559 -58.59857422 291.62589233 -59.47859192 291.61955261 C-60.22756744 291.62240265 -60.97654297 291.62525269 -61.74821472 291.62818909 C-64.78510924 290.91310906 -65.90051277 289.54254685 -67.84822083 287.13371277 C-68.35158539 284.3296423 -68.35158539 284.3296423 -68.3561554 281.03213501 C-68.36743469 279.78041 -68.37871399 278.528685 -68.39033508 277.23902893 C-68.38255777 275.85423048 -68.37436509 274.4694343 -68.36579895 273.0846405 C-68.37122021 271.62407737 -68.3783429 270.16351971 -68.38703918 268.70297241 C-68.40528656 264.73551892 -68.39819641 260.76848122 -68.38552284 256.80102038 C-68.37538897 252.64213622 -68.38479084 248.48328744 -68.3910675 244.32440186 C-68.39834847 237.33263271 -68.38875043 230.34103244 -68.3697052 223.34928894 C-68.34799505 215.28656535 -68.35494311 207.22424731 -68.37701082 199.16153377 C-68.39522341 192.22797016 -68.39769286 185.29452798 -68.38725615 178.36094815 C-68.38104559 174.22518825 -68.38011669 170.08961818 -68.3934021 165.95387077 C-68.4050434 162.05737011 -68.39678575 158.16138574 -68.37382507 154.26494026 C-68.36857921 152.84245278 -68.36998024 151.41992112 -68.37887573 149.99745178 C-68.45639809 136.32977509 -65.36850456 124.97489915 -55.74275208 114.93840027 C-48.84689597 108.50543295 -43.17293607 105.39850487 -33.84822083 104.13371277 C-33.86487541 102.58848434 -33.86487541 102.58848434 -33.88186646 101.01203918 C-33.98350932 91.27316523 -34.0583138 81.53439982 -34.10728168 71.79511452 C-34.13330364 66.78877671 -34.16856562 61.78286932 -34.22541809 56.77677917 C-34.28000295 51.93973473 -34.30969696 47.1031026 -34.32260704 42.26577377 C-34.33179961 40.4262735 -34.34975021 38.58679415 -34.37687111 36.74747086 C-34.53652344 25.46459481 -34.41293686 16.71019536 -26.78572083 7.69621277 C-18.25328025 0.8152123 -10.73209789 -0.01810443 0 0 Z M-14.63943481 21.27844238 C-16.57408066 24.24777783 -16.23892305 27.39163525 -16.188797 30.81803894 C-16.18923508 31.59876266 -16.18967316 32.37948639 -16.19012451 33.18386841 C-16.18803407 35.7650603 -16.16469143 38.34560307 -16.14118958 40.92668152 C-16.13559452 42.71600998 -16.13132399 44.50534304 -16.12832642 46.29467773 C-16.1168705 51.00480329 -16.08739694 55.71465143 -16.05421448 60.42466736 C-16.02352966 65.23063911 -16.00982448 70.03665567 -15.9947052 74.84269714 C-15.96252786 84.27317719 -15.90975387 93.70337852 -15.84822083 103.13371277 C-10.56822083 103.13371277 -5.28822083 103.13371277 0.15177917 103.13371277 C0.16112488 101.96912537 0.17047058 100.80453796 0.18009949 99.60466003 C0.22022746 95.24881427 0.28604787 90.89365798 0.35929871 86.53825378 C0.38737682 84.65976373 0.40865628 82.78115843 0.42277527 80.9025116 C0.44438843 78.18861948 0.49112964 75.47609405 0.54240417 72.76261902 C0.54363281 71.93411942 0.54486145 71.10561981 0.54612732 70.25201416 C0.6973736 64.11468268 2.33913545 59.55273696 5.15177917 54.13371277 C5.44232178 53.42940628 5.73286438 52.72509979 6.0322113 51.99945068 C7.44405708 49.64663737 8.63731086 49.16444335 11.15177917 48.13371277 C11.8405011 47.78667297 12.52922302 47.43963318 13.23881531 47.08207703 C20.53901676 43.76606783 27.18599552 43.55112062 35.12052917 43.60246277 C37.09466797 43.59672241 37.09466797 43.59672241 39.10868835 43.59086609 C41.87894227 43.58500853 44.64867615 43.59341088 47.41886902 43.61222839 C50.94245059 43.63501697 54.46481291 43.6218734 57.98834991 43.59793854 C61.38667002 43.57988197 64.78467462 43.59258111 68.18302917 43.60246277 C69.43434631 43.59436584 70.68566345 43.58626892 71.97489929 43.57792664 C79.53905148 43.65819174 85.38583234 44.72442272 92.15177917 48.13371277 C92.86080383 48.42435608 93.56982849 48.71499939 94.30033875 49.01445007 C96.63412738 50.42530971 97.12216033 51.63780606 98.15177917 54.13371277 C98.4979126 54.80059616 98.84404602 55.46747955 99.20066833 56.15457153 C101.9625027 61.81469181 102.75187654 66.5064921 102.76115417 72.76261902 C102.77769043 73.63772629 102.79422668 74.51283356 102.81126404 75.41445923 C102.85936166 78.17511782 102.88102896 80.93522726 102.90177917 83.69621277 C102.92997095 85.58230754 102.95990281 87.46837716 102.99162292 89.35441589 C103.06510972 93.94746954 103.11491687 98.54022513 103.15177917 103.13371277 C108.43177917 103.13371277 113.71177917 103.13371277 119.15177917 103.13371277 C119.18916199 100.56718933 119.2265448 98.00066589 119.26506042 95.35636902 C119.31139906 92.84416142 119.36258755 90.33209558 119.41423035 87.81999207 C119.44728717 86.08700831 119.47537771 84.35392187 119.49821472 82.62077332 C119.53211809 80.11553067 119.58444645 77.61121297 119.64006042 75.10636902 C119.64645035 74.34349075 119.65284027 73.58061249 119.65942383 72.7946167 C119.87334783 64.79616633 122.02851482 57.39548032 127.15177917 51.13371277 C135.37859362 43.74804394 144.03311834 43.82518287 154.64396667 43.83293152 C156.59473618 43.82650383 156.59473618 43.82650383 158.58491516 43.81994629 C161.33006381 43.81251357 164.07508379 43.81275355 166.82023621 43.81803894 C170.31576249 43.82382624 173.81075762 43.80690675 177.30619621 43.78369427 C180.66880726 43.76530671 184.03130581 43.76914446 187.39396667 43.77043152 C189.25999039 43.7566169 189.25999039 43.7566169 191.16371155 43.74252319 C199.74416431 43.78789427 208.17164443 44.38856802 214.80412292 50.48527527 C221.12874374 58.22147812 222.24794707 66.6951006 222.46818542 76.37590027 C222.48896652 77.14427216 222.50974762 77.91264404 222.53115845 78.70429993 C222.59611386 81.13902044 222.65528555 83.57384124 222.71427917 86.00871277 C222.75751587 87.66757696 222.80113174 89.32643132 222.84513855 90.98527527 C222.95244707 95.03465354 223.0519203 99.08411663 223.15177917 103.13371277 C228.43177917 103.13371277 233.71177917 103.13371277 239.15177917 103.13371277 C239.21961422 93.19779213 239.27462947 83.26202584 239.30721569 73.32592583 C239.32285714 68.71196245 239.34406759 64.09816601 239.37809753 59.48429871 C239.41074529 55.02984608 239.42864364 50.57555382 239.4364109 46.12099075 C239.4419447 44.42336122 239.4527509 42.72574025 239.46896935 41.02817917 C239.49081591 38.64633617 239.49374313 36.26515191 239.49235535 33.88322449 C239.50314117 33.18478928 239.513927 32.48635406 239.52503967 31.76675415 C239.49614675 27.16981664 238.74200965 23.95229974 236.15177917 20.13371277 C231.52332322 17.48670229 226.68344703 17.85444012 221.51078796 17.87974548 C220.045718 17.87506551 220.045718 17.87506551 218.55105066 17.87029099 C215.27532082 17.86230801 211.99977606 17.8686359 208.7240448 17.87492371 C206.37676891 17.87221398 204.02949388 17.86865316 201.68222046 17.86430359 C195.3042639 17.85517514 188.92637194 17.85872576 182.54841423 17.86506176 C176.55472712 17.86960692 170.56104597 17.86614041 164.56735903 17.86320737 C151.9729068 17.85750465 139.37848368 17.86406105 126.78403622 17.8748081 C115.97805445 17.88374356 105.17211564 17.88219151 94.36613464 17.87297058 C81.81666465 17.86226692 69.26722018 17.85805397 56.71774626 17.86419511 C50.07496532 17.8673575 43.43220834 17.86772121 36.78942871 17.86112213 C30.54485434 17.85535215 24.30036125 17.85933928 18.05579567 17.87091064 C15.76161141 17.87355908 13.46742032 17.87278903 11.17323875 17.86838531 C8.04632306 17.86293576 4.91966931 17.86975702 1.79277039 17.87974548 C0.88080855 17.87528404 -0.03115329 17.8708226 -0.97075033 17.86622596 C-6.23126784 17.89891132 -10.11386965 18.38624274 -14.63943481 21.27844238 Z M20.15177917 63.13371277 C17.59424114 66.97001982 17.89846277 70.07856558 17.95646667 74.52043152 C17.95848083 75.24476379 17.960495 75.96909607 17.96257019 76.71537781 C17.97302284 79.41738735 18.00094549 82.11930651 18.02677917 84.82121277 C18.06802917 90.86433777 18.10927917 96.90746277 18.15177917 103.13371277 C40.26177917 103.13371277 62.37177917 103.13371277 85.15177917 103.13371277 C85.23427917 97.11121277 85.31677917 91.08871277 85.40177917 84.88371277 C85.43819519 82.98846863 85.47461121 81.09322449 85.51213074 79.14054871 C85.52381659 77.63307325 85.53400867 76.12558514 85.54240417 74.61808777 C85.57309998 73.45043884 85.57309998 73.45043884 85.60441589 72.25920105 C85.60675137 68.63220324 85.50014571 66.5863206 83.25236511 63.66593933 C79.91394379 61.23080077 78.03691661 61.00470935 73.93937683 60.9884491 C72.30725754 60.97887932 72.30725754 60.97887932 70.64216614 60.96911621 C69.46197906 60.96800339 68.28179199 60.96689056 67.06584167 60.96574402 C65.85737579 60.96241562 64.64890991 60.95908722 63.40382385 60.95565796 C60.84325034 60.95058725 58.2826702 60.94824968 55.72209167 60.94841003 C51.80010599 60.94622576 47.87840246 60.92807732 43.95646667 60.90910339 C41.47209264 60.9061691 38.98771726 60.90418455 36.50334167 60.90324402 C35.32720306 60.8960585 34.15106445 60.88887299 32.93928528 60.88146973 C31.84490143 60.88454636 30.75051758 60.88762299 29.62297058 60.89079285 C28.17973923 60.88865532 28.17973923 60.88865532 26.70735168 60.88647461 C23.99410589 61.14896683 22.42084864 61.64184824 20.15177917 63.13371277 Z M137.85148621 65.81828308 C136.81350562 69.25310787 136.90703216 72.62830895 136.95646667 76.18058777 C136.95848083 76.86459656 136.960495 77.54860535 136.96257019 78.25334167 C136.97299679 80.79686739 137.00091936 83.34029715 137.02677917 85.88371277 C137.06802917 91.57621277 137.10927917 97.26871277 137.15177917 103.13371277 C159.59177917 103.13371277 182.03177917 103.13371277 205.15177917 103.13371277 C207.68598955 73.08409953 207.68598955 73.08409953 202.15177917 63.13371277 C199.15112515 60.93640366 196.4745217 60.8770564 192.81999207 60.85905457 C191.75531204 60.84952255 190.69063202 60.83999054 189.59368896 60.83016968 C188.4488353 60.83108109 187.30398163 60.83199249 186.12443542 60.83293152 C184.94336716 60.82864639 183.76229889 60.82436127 182.54544067 60.81994629 C180.04809714 60.81420413 177.55073687 60.81370188 175.0533905 60.81803894 C171.23238086 60.8211978 167.41214616 60.79774088 163.5912323 60.77238464 C161.16480099 60.77011155 158.73836759 60.7694082 156.31193542 60.77043152 C154.59769127 60.7566169 154.59769127 60.7566169 152.84881592 60.74252319 C151.24706764 60.75186638 151.24706764 60.75186638 149.61296082 60.76139832 C148.67682449 60.76076889 147.74068817 60.76013947 146.77618408 60.75949097 C143.01552159 61.29573516 140.18596061 62.79389829 137.85148621 65.81828308 Z M-45.59431458 131.09465027 C-56.47699079 148.79171252 -49.84822083 164.43898351 -49.84822083 188.13371277 C56.74177917 188.13371277 163.33177917 188.13371277 273.15177917 188.13371277 C276.31976321 158.65687661 276.31976321 158.65687661 266.71427917 129.19621277 C265.86865417 128.51558777 265.02302917 127.83496277 264.15177917 127.13371277 C262.94521667 126.05090027 262.94521667 126.05090027 261.71427917 124.94621277 C255.47176552 120.53077628 249.06819478 120.84312789 241.71580505 120.85955811 C240.55800529 120.85432143 239.40020553 120.84908475 238.20732093 120.84368938 C235.00209731 120.83129742 231.79700981 120.82784544 228.59176683 120.82828629 C225.1315057 120.8266351 221.67128424 120.81356299 218.21104431 120.80209351 C210.64898642 120.77926812 203.08695664 120.77132562 195.52486897 120.76626706 C190.8006454 120.76300732 186.07642996 120.75648319 181.352211 120.74926567 C168.26484566 120.72970333 155.17748786 120.71329685 142.09010696 120.71038914 C141.25303172 120.71020157 140.41595647 120.710014 139.5535153 120.70982074 C137.85666132 120.7094545 136.15980734 120.7090908 134.46295336 120.70872963 C133.19952272 120.70845542 133.19952272 120.70845542 131.91056824 120.70817566 C131.06724976 120.70799511 130.22393127 120.70781456 129.35505769 120.70762854 C115.69188709 120.70408728 102.02887414 120.67706629 88.36575821 120.63967777 C74.32849749 120.60157366 60.29131496 120.58223151 46.25400138 120.58192962 C38.37636548 120.58134555 30.49891767 120.57288548 22.62133026 120.54393196 C15.91330989 120.51938993 9.20554622 120.51215413 2.49749306 120.52717949 C-0.92262542 120.53433689 -4.34223727 120.53354261 -7.76229858 120.51076889 C-11.47674406 120.49033536 -15.1898831 120.50084677 -18.90431213 120.51898193 C-19.97612032 120.50578197 -21.0479285 120.492582 -22.15221572 120.47898203 C-31.74797943 120.58575888 -39.40636662 123.59522678 -45.59431458 131.09465027 Z M-49.84822083 206.13371277 C-49.84822083 228.24371277 -49.84822083 250.35371277 -49.84822083 273.13371277 C-44.56822083 273.13371277 -39.28822083 273.13371277 -33.84822083 273.13371277 C-33.81083801 271.07507996 -33.7734552 269.01644714 -33.73493958 266.89543152 C-33.68626366 264.89971885 -33.63748476 262.9040072 -33.58576965 260.90837097 C-33.55253534 259.522419 -33.52449857 258.13633216 -33.50178528 256.75016785 C-33.46821466 254.75664434 -33.41434082 252.76349536 -33.35993958 250.77043152 C-33.33375549 249.57120056 -33.30757141 248.3719696 -33.28059387 247.13639832 C-32.84822083 244.13371277 -32.84822083 244.13371277 -31.5037384 242.28141785 C-28.4615004 240.17235416 -25.76182273 240.00809933 -22.18264961 240.00507832 C-20.73618937 240.00024165 -20.73618937 240.00024165 -19.2605077 239.99530727 C-18.1987551 239.99685587 -17.13700249 239.99840447 -16.04307556 240 C-14.35393172 239.99660167 -14.35393172 239.99660167 -12.63066375 239.99313468 C-8.83744985 239.98677796 -5.04427152 239.98762511 -1.25105286 239.9884491 C1.46045569 239.98600328 4.17196171 239.98208494 6.88346863 239.97827148 C13.49617447 239.96995797 20.10887141 239.96721633 26.72158204 239.96665911 C32.09570671 239.96618427 37.46982844 239.96413115 42.84395218 239.96095848 C58.07405875 239.95214995 73.30415827 239.94753941 88.53426741 239.94828895 C89.76636884 239.94834889 89.76636884 239.94834889 91.02336121 239.94841003 C92.25696364 239.94847136 92.25696364 239.94847136 93.51548733 239.94853391 C106.84590846 239.94894043 120.17630136 239.93937007 133.50671433 239.92527167 C147.1878956 239.91091624 160.86906309 239.90400103 174.55025208 239.90486544 C182.2337635 239.90519771 189.91724532 239.90243789 197.60074997 239.89168739 C204.14240455 239.88259334 210.6840161 239.8803981 217.22567426 239.88719682 C220.56400275 239.89046762 223.90218108 239.88941721 227.24051285 239.88184357 C230.857972 239.87416664 234.47521244 239.87874001 238.09266663 239.88647461 C239.14995779 239.88133105 240.20724895 239.87618748 241.29657924 239.87088805 C242.26610157 239.87548685 243.23562389 239.88008565 244.23452568 239.8848238 C245.06942335 239.88460643 245.90432102 239.88438906 246.76451862 239.88416511 C249.54561928 240.17488208 251.64895134 240.89568781 254.15177917 242.13371277 C256.24195952 245.77110251 256.44347966 249.16957914 256.56584167 253.30949402 C256.60451355 254.46642761 256.64318542 255.62336121 256.68302917 256.81535339 C256.72943542 258.61262878 256.72943542 258.61262878 256.77677917 260.44621277 C256.81545105 261.6637323 256.85412292 262.88125183 256.89396667 264.13566589 C256.98805622 267.13477019 257.07099908 270.13422048 257.15177917 273.13371277 C262.43177917 273.13371277 267.71177917 273.13371277 273.15177917 273.13371277 C273.15177917 251.02371277 273.15177917 228.91371277 273.15177917 206.13371277 C166.56177917 206.13371277 59.97177917 206.13371277 -49.84822083 206.13371277 Z " fill="#07B707" transform="translate(67.84822082519531,16.866287231445313)"/>
</svg>
